<svg width="90" height="36" viewBox="0 0 90 36" fill="none" xmlns="http://www.w3.org/2000/svg">
<g id="Frame 11">
<g id="Group 2">
<path id="Vector" d="M33.3148 33.9612C33.9141 34.6225 34.6299 35.1322 35.443 35.4838C36.2495 35.8257 37.1208 35.9999 38.0375 35.9999C39.9389 35.9999 41.5358 35.3161 42.7764 33.9612C43.272 33.4096 43.6251 32.7999 43.8227 32.158C44.0073 31.5515 44.1012 30.8128 44.1012 29.9548V20.5516H42.0994V29.9064C42.0994 30.5838 42.0282 31.1483 41.8954 31.5935C41.7755 31.987 41.5585 32.3515 41.2508 32.6709C40.3989 33.5612 39.317 34.0096 38.031 34.0096C36.7451 34.0096 35.6729 33.558 34.8275 32.6741C34.5166 32.3451 34.2963 31.9774 34.1797 31.5806C34.0436 31.1386 33.9756 30.5741 33.9756 29.9032V20.5483H31.9771V29.9515C31.9771 30.7741 32.0807 31.5128 32.2783 32.1515C32.4921 32.829 32.8387 33.4386 33.3148 33.958" fill="#050101"/>
<path id="Vector_2" d="M42.0896 0.00317383V9.32897C42.0896 10.0032 42.0248 10.5709 41.8856 11.0128C41.7689 11.4032 41.5519 11.7644 41.241 12.0838C40.3955 12.9709 39.3137 13.4193 38.031 13.4193C36.7483 13.4193 35.6793 12.9709 34.8371 12.087C34.5262 11.7612 34.3092 11.3935 34.1893 10.9967C34.0565 10.5548 33.9885 9.99025 33.9885 9.32897V0.00317383H31.9932V9.37735C31.9932 10.1967 32.0936 10.9386 32.2944 11.5709C32.505 12.2483 32.8515 12.8515 33.3277 13.3741C33.9237 14.0322 34.6396 14.5386 35.4526 14.887C36.2527 15.2322 37.124 15.4031 38.0374 15.4031C39.9323 15.4031 41.5228 14.7193 42.7634 13.3677C43.2557 12.8225 43.6088 12.2128 43.8064 11.5709C43.9878 10.9677 44.0849 10.229 44.0849 9.37413V0.00317383H42.0896Z" fill="#050101"/>
<path id="Vector_3" d="M67.6725 20.5742H65.3695V35.9774H67.6725V33.4548C67.6725 33.4323 67.6758 33.4097 67.6758 33.3839V21.6549C67.6758 21.6323 67.6725 21.6097 67.6725 21.5839V20.5742Z" fill="#050101"/>
<path id="Vector_4" d="M70.5748 0.00317383V9.32897C70.5748 10.0032 70.5068 10.5709 70.374 11.0128C70.2541 11.4032 70.0371 11.7644 69.7294 12.0838C68.8839 12.9709 67.8021 13.4193 66.5194 13.4193C65.2367 13.4193 64.1677 12.9709 63.3255 12.087C63.0146 11.7612 62.7976 11.3935 62.6777 10.9967C62.5417 10.5548 62.4736 9.99025 62.4736 9.32897V0.00317383H60.4816V9.37735C60.4816 10.1967 60.582 10.9386 60.7828 11.5709C60.9934 12.2483 61.3432 12.8515 61.8161 13.3741C62.4153 14.0322 63.128 14.5386 63.941 14.887C64.7443 15.2322 65.6124 15.4031 66.5291 15.4031C68.424 15.4031 70.0144 14.7193 71.255 13.3677C71.7441 12.8225 72.1004 12.2128 72.2948 11.5709C72.4794 10.9677 72.5733 10.229 72.5733 9.37413V0.00317383H70.5813H70.5748Z" fill="#050101"/>
<path id="Vector_5" d="M10.7249 22.1774C10.686 22.142 10.6471 22.1065 10.6115 22.0742C10.5435 22.0129 10.4916 21.9678 10.4171 21.9097C10.1191 21.6774 9.78226 21.4678 9.41947 21.2903C8.49955 20.8162 7.43711 20.5742 6.25805 20.5742C4.93 20.5742 3.62462 21.0033 2.66907 21.7549C1.71351 22.5129 1.04625 23.8549 1.04625 25.0258C1.04625 25.9258 1.17258 26.571 1.43495 26.9903C1.75886 27.5 2.20263 27.9065 2.75652 28.1936C3.26183 28.4613 3.93558 28.6516 4.75832 28.7742C5.18913 28.8355 5.90175 28.929 6.93504 29.0581C8.75868 29.3258 9.68508 30.0742 9.68508 31.2839C9.68508 31.9097 9.41623 32.7871 8.82347 33.2258C8.17887 33.7032 7.26219 33.9516 6.10905 33.9516C4.95591 33.9516 4.29188 33.829 3.62138 33.5323C3.01242 33.2613 2.4488 32.8484 2.10545 32.4161C1.98236 32.1516 1.85928 31.8452 1.85604 31.8419L1.78802 31.6581L0 32.2742L0.298003 33.0936L0.450243 33.3903L0.485874 33.4516C0.57657 33.6129 0.725571 33.8806 1.23412 34.2968C1.54184 34.5516 1.88843 34.7903 2.20263 34.9613C2.76624 35.2774 3.3752 35.5935 4.0036 35.7484C4.62876 35.9032 5.28955 35.9839 5.96653 35.9839C7.50513 35.9839 8.91092 35.5548 10.0252 34.7452C10.9872 34.0355 11.6091 32.6742 11.6091 31.2774C11.6091 30.2323 11.1654 27.7387 7.07108 27.1613C6.5431 27.0903 6.01836 27.0226 5.50333 26.9581C4.45708 26.8129 3.95825 26.6549 3.72503 26.5419C3.51773 26.4484 3.31042 26.2355 3.09016 25.8903C2.97031 25.7032 2.97031 25.3807 2.97031 25.0968V25.0226C2.97031 24.4452 3.38492 23.6484 3.89671 23.2516C4.51539 22.7742 5.40616 22.4871 6.28397 22.4871C6.96095 22.4871 7.57963 22.5936 8.12705 22.8032C8.65827 23.0097 9.10203 23.2839 9.43891 23.6194H9.44539C9.53284 23.7387 9.85676 24.1742 9.97013 24.3484L10.0705 24.5161L11.5735 23.6742L11.5217 23.5129C11.512 23.4807 11.2593 22.7161 10.754 22.2L10.7313 22.1774H10.7249Z" fill="#050101"/>
<g id="Group">
<path id="Vector_6" d="M9.10201 0.00317383L9.08582 15.4064H11.0552V0.00317383H9.10201Z" fill="#050101"/>
<path id="Vector_7" d="M0.550659 9.36122V11.3096V15.4064H2.52007L2.51035 0.00317383H0.550659V9.36122Z" fill="#050101"/>
<path id="Vector_8" d="M4.9235 6.72266H3.96471H1.94995V8.68717L9.52634 8.67749V6.72266H4.9235Z" fill="#050101"/>
</g>
<path id="Vector_9" d="M17.6277 20.5742H15.2793V22.4871H20.8215V35.0129C20.8215 35.0355 20.8247 35.0581 20.828 35.0839V35.9774H22.7326V22.4871H28.3007V20.5742H17.6244H17.6277Z" fill="#050101"/>
<path id="Vector_10" d="M21.8028 4.22897L22.6449 5.87413C22.6449 5.87413 22.6514 5.89026 22.6579 5.89671L22.687 5.94833L27.468 15.4031H29.6642L28.0738 12.3709L22.687 1.72253L22.6579 1.67091C22.6579 1.67091 22.6449 1.65478 22.6449 1.64833L21.8028 0.00317383L16.957 9.45477L15.9755 11.3741L14.7641 13.7419L14.7187 13.8709L13.9154 15.4031H16.0759L16.9602 13.6806L21.806 4.22575L21.8028 4.22897Z" fill="#050101"/>
<path id="Vector_11" d="M53.647 20.5743H48.4708V35.9775H53.647C60.7699 35.9775 60.216 28.271 60.216 28.271C60.1771 20.571 53.647 20.571 53.647 20.571M58.3632 28.271C58.5187 34.3355 53.1968 34.1259 53.1968 34.1259H50.3593V22.4162H52.0469C58.8685 22.1485 58.36 28.2678 58.36 28.2678" fill="#050101"/>
<path id="Vector_12" d="M55.315 12.6487C54.6672 13.1326 53.757 13.3745 52.6039 13.3745C51.4507 13.3745 50.7835 13.2519 50.113 12.9584C49.5072 12.6874 48.9371 12.2713 48.597 11.8422C48.4739 11.5745 48.3509 11.2681 48.3509 11.2648L48.2796 11.081L46.4916 11.6939L46.7863 12.5164L46.9386 12.8164L46.9775 12.8777C47.0714 13.039 47.2139 13.3068 47.7257 13.7197C48.0302 13.9745 48.38 14.2164 48.691 14.3874C49.2578 14.7035 49.8635 15.0197 50.4919 15.1745C51.1203 15.3261 51.7844 15.41 52.4581 15.41C53.9967 15.41 55.3993 14.981 56.5135 14.1681C57.4756 13.4616 58.0975 12.1003 58.0975 10.7035C58.0975 9.65838 57.6537 7.16484 53.5627 6.58419C53.0282 6.51322 52.5035 6.44548 51.9884 6.38419C50.9422 6.24548 50.4434 6.08097 50.2134 5.97129C50.0093 5.87452 49.7988 5.66161 49.5785 5.31323C49.4586 5.12613 49.4586 4.80355 49.4586 4.52291V4.44871C49.4586 3.86807 49.8733 3.07452 50.385 2.68097C51.0037 2.20355 51.8945 1.91323 52.7723 1.91323C53.4493 1.91323 54.0712 2.01968 54.6154 2.22936C55.1498 2.43581 55.5936 2.71323 55.9305 3.04549V3.05194C56.0244 3.16807 56.3483 3.60033 56.4617 3.77775L56.5621 3.94549L58.0651 3.10678L58.0133 2.94549C58.0003 2.91323 57.7509 2.14872 57.2456 1.63259L57.2229 1.61001C57.1873 1.5713 57.1452 1.53581 57.1095 1.50678C57.0415 1.44872 56.9929 1.40678 56.9152 1.34549C56.6172 1.11323 56.2836 0.903557 55.9175 0.719686C54.9976 0.248719 53.9352 0.0100098 52.7561 0.0100098C51.4281 0.0100098 50.1227 0.439041 49.1639 1.19065C48.2116 1.94549 47.5378 3.29065 47.5378 4.45516C47.5378 5.35516 47.6674 6.00032 47.933 6.4229C48.2537 6.93258 48.7007 7.33903 49.2546 7.62935C49.7599 7.89064 50.4336 8.08419 51.2531 8.20354C51.6839 8.26806 52.3998 8.36161 53.4299 8.49064C55.2535 8.75838 56.1799 9.50677 56.1799 10.7164C56.1799 11.3422 55.9111 12.2197 55.3183 12.6551" fill="#050101"/>
<path id="Vector_13" d="M82.4365 20.5742C78.2677 20.5742 74.8763 24.0258 74.8763 28.2742C74.8763 32.5226 78.2677 35.9774 82.4365 35.9774C86.6053 35.9774 90 32.5226 90 28.2742C90 24.0258 86.6086 20.5742 82.4365 20.5742ZM82.4365 33.9871C79.3431 33.9871 76.8296 31.4226 76.8296 28.271C76.8296 25.1194 79.3431 22.5613 82.4365 22.5613C85.5299 22.5613 88.05 25.1194 88.05 28.271C88.05 31.4226 85.5299 33.9871 82.4365 33.9871Z" fill="#050101"/>
<path id="Vector_14" d="M86.3203 2.16129L86.3139 2.17419C86.2782 2.20645 86.2459 2.23548 86.2167 2.27742L82.4301 7.19999L78.6371 2.27096C78.6241 2.25161 78.6014 2.22903 78.5852 2.20967L76.9073 0V15.4032H78.7699V5.49677L81.5653 9.12257C81.6041 9.19031 81.6495 9.24515 81.6948 9.29353L82.4495 10.2677L83.4699 8.90321L86.1033 5.48064V14.3838C86.1033 14.4355 86.1066 14.4806 86.1163 14.529V15.4064H87.9788L87.9691 0.0032258L86.3236 2.16129H86.3203Z" fill="#050101"/>
</g>
</g>
</svg>
