<svg width="132" height="194" viewBox="0 0 132 194" fill="none" xmlns="http://www.w3.org/2000/svg">
<path d="M31.18 72.54V101.46C31.18 103.55 30.97 105.31 30.55 106.68C30.19 107.89 29.52 109.01 28.56 110C25.95 112.75 22.61 114.14 18.65 114.14C14.69 114.14 11.39 112.75 8.78001 110.01C7.82001 109 7.15001 107.86 6.78001 106.63C6.37001 105.26 6.16001 103.51 6.16001 101.46V72.54H0.0100098V101.6C0.0100098 104.14 0.32001 106.44 0.94001 108.4C1.60001 110.5 2.67001 112.37 4.13001 113.99C5.98001 116.03 8.18001 117.6 10.7 118.68C13.17 119.75 15.86 120.28 18.68 120.28C24.53 120.28 29.43 118.16 33.27 113.97C34.78 112.28 35.88 110.39 36.49 108.4C37.05 106.53 37.35 104.23 37.35 101.59V72.53H31.19L31.18 72.54Z" fill="#050101"/>
<path d="M26.4 0L26.37 47.75H32.45V0H26.4Z" fill="#050101"/>
<path d="M0.0100098 29.01V35.05V47.75H6.09001L6.07001 0H0.0100098V29.01Z" fill="#050101"/>
<path d="M13.52 20.83H10.56H4.34003V26.92L27.72 26.89V20.83H13.52Z" fill="#050101"/>
<path d="M65.93 13.11L68.53 18.2C68.53 18.2 68.56 18.25 68.57 18.27L68.66 18.43L83.42 47.74H90.2L85.29 38.33L68.67 5.33001L68.58 5.18001C68.58 5.18001 68.54 5.13001 68.54 5.11001L65.94 0.0100098L50.98 29.31L47.95 35.26L44.21 42.61L44.08 43.01L41.6 47.76H48.27L50.99 42.41L65.95 13.12L65.93 13.11Z" fill="#050101"/>
<path d="M78.77 145.09V174.01C78.77 176.09 78.56 177.86 78.15 179.23C77.78 180.44 77.11 181.56 76.16 182.55C73.55 185.3 70.21 186.69 66.25 186.69C62.29 186.69 58.99 185.3 56.39 182.56C55.43 181.55 54.76 180.41 54.39 179.18C53.97 177.81 53.76 176.06 53.76 174.01V145.09H47.61V174.15C47.61 176.69 47.92 178.99 48.54 180.95C49.19 183.05 50.27 184.92 51.73 186.54C53.58 188.58 55.78 190.15 58.29 191.23C60.77 192.3 63.45 192.83 66.28 192.83C72.13 192.83 77.04 190.71 80.87 186.52C82.38 184.83 83.48 182.94 84.08 180.95C84.65 179.08 84.94 176.78 84.94 174.14V145.08H78.79L78.77 145.09Z" fill="#050101"/>
<path d="M27.27 184.29C25.27 185.79 22.45 186.54 18.89 186.54C15.33 186.54 13.27 186.16 11.19 185.25C9.32 184.41 7.58 183.12 6.52 181.8C6.14 180.97 5.76 180.01 5.75 180.01L5.54 179.43L0 181.32L0.92 183.87L1.39 184.8L1.5 184.99C1.79 185.49 2.25 186.32 3.81 187.6C4.77 188.39 5.83 189.14 6.8 189.67C8.54 190.65 10.41 191.63 12.35 192.11C14.29 192.58 16.34 192.84 18.42 192.84C23.17 192.84 27.5 191.51 30.95 188.99C33.92 186.8 35.83 182.58 35.83 178.25C35.83 175.01 34.46 167.28 21.83 165.48C20.18 165.26 18.56 165.05 16.97 164.86C13.74 164.43 12.2 163.92 11.49 163.58C10.86 163.28 10.22 162.62 9.53 161.54C9.16 160.96 9.16 159.96 9.16 159.09V158.86C9.16 157.06 10.44 154.6 12.01 153.38C13.92 151.9 16.67 151 19.38 151C21.47 151 23.39 151.33 25.07 151.98C26.72 152.62 28.09 153.48 29.14 154.51H29.15C29.41 154.88 30.43 156.24 30.76 156.77L31.08 157.29L35.71 154.7L35.56 154.2C35.52 154.1 34.74 151.73 33.19 150.13L33.12 150.06C33 149.94 32.88 149.83 32.76 149.74C32.55 149.56 32.4 149.43 32.18 149.24C31.26 148.52 30.22 147.87 29.1 147.3C26.26 145.84 22.97 145.1 19.34 145.1C15.24 145.1 11.21 146.44 8.26 148.76C5.3 151.1 3.24 155.27 3.24 158.88C3.24 161.67 3.64 163.67 4.46 164.98C5.45 166.56 6.82 167.82 8.54 168.72C10.1 169.53 12.17 170.14 14.7 170.5C16.03 170.7 18.24 170.99 21.42 171.39C27.06 172.22 29.91 174.54 29.91 178.29C29.91 180.23 29.08 182.95 27.25 184.3" fill="#050101"/>
<path d="M126.64 151.78L126.62 151.82C126.51 151.92 126.41 152.02 126.32 152.14L114.62 167.4L102.91 152.12C102.87 152.06 102.8 151.99 102.75 151.93L97.57 145.08V192.83H103.32V162.12L111.95 173.36C112.07 173.57 112.21 173.74 112.35 173.89L114.68 176.92L117.83 172.68L125.96 162.07V189.67C125.96 189.82 125.97 189.97 126 190.11V192.82H131.75L131.72 145.07L126.64 151.76V151.78Z" fill="#050101"/>
</svg>
