<svg width="26" height="529" viewBox="0 0 26 529" fill="none" xmlns="http://www.w3.org/2000/svg">
<rect width="529" height="26" transform="translate(0 529) rotate(-90)" fill="white"/>
<path d="M17 502.48L10.45 502.48L10.45 504.69L9.67 504.69L9.67 499.33L10.45 499.33L10.45 501.54L17 501.54L17 502.48ZM17.14 498.845C17.14 499.205 16.85 499.495 16.44 499.495C16.02 499.495 15.74 499.205 15.74 498.845C15.74 498.475 16.02 498.175 16.44 498.175C16.85 498.175 17.14 498.475 17.14 498.845ZM15.84 492.805L13.66 492.805L13.66 494.835L12.98 494.835L12.98 492.805L10.79 492.805L10.79 492.065L12.98 492.065L12.98 490.035L13.66 490.035L13.66 492.065L15.84 492.065L15.84 492.805ZM17.14 486.868C17.14 488.218 16.32 489.208 15.19 489.208C14.25 489.208 13.61 488.528 13.26 487.858L13.22 487.858C12.85 488.388 12.32 488.858 11.57 488.858C10.47 488.858 9.75 487.988 9.75 486.838C9.75 485.588 10.53 484.828 11.64 484.828C12.39 484.828 13.02 485.378 13.35 485.808L13.4 485.808C13.78 485.178 14.28 484.568 15.24 484.568C16.31 484.568 17.14 485.498 17.14 486.868ZM13.12 486.368C12.68 485.878 12.21 485.608 11.68 485.608C10.98 485.608 10.42 486.068 10.42 486.858C10.42 487.528 10.88 488.018 11.57 488.018C12.42 488.018 12.78 487.228 13.12 486.368ZM16.45 486.848C16.45 486.008 15.94 485.448 15.21 485.448C14.28 485.448 13.96 486.348 13.54 487.378C13.92 487.968 14.44 488.388 15.1 488.388C15.88 488.388 16.45 487.728 16.45 486.848ZM17 483.671L16.47 483.671C14.33 481.521 13.04 480.321 11.87 480.321C11.06 480.321 10.48 480.751 10.48 481.661C10.48 482.261 10.86 482.781 11.34 483.191L10.82 483.721C10.17 483.121 9.75 482.481 9.75 481.551C9.75 480.241 10.57 479.421 11.84 479.421C13.18 479.421 14.51 480.651 16.29 482.341C16.25 481.961 16.22 481.511 16.22 481.141L16.22 479.071L17 479.071L17 483.671ZM17 475.448L16.24 475.448L16.24 473.818L10.99 473.818L10.99 475.128L10.4 475.128C10.28 474.468 10.11 473.998 9.88 473.608L9.88 472.908L16.24 472.908L16.24 471.428L17 471.428L17 475.448ZM17.14 468.001C17.14 469.431 15.81 470.291 13.42 470.291C11.03 470.291 9.75 469.431 9.75 468.001C9.75 466.591 11.03 465.731 13.42 465.731C15.81 465.731 17.14 466.591 17.14 468.001ZM16.4 468.001C16.4 467.171 15.51 466.611 13.42 466.611C11.32 466.611 10.48 467.171 10.48 468.001C10.48 468.841 11.32 469.411 13.42 469.411C15.51 469.411 16.4 468.841 16.4 468.001ZM17 462.558L16.47 462.558C14.33 460.408 13.04 459.208 11.87 459.208C11.06 459.208 10.48 459.638 10.48 460.548C10.48 461.148 10.86 461.668 11.34 462.078L10.82 462.608C10.17 462.008 9.75 461.368 9.75 460.438C9.75 459.128 10.57 458.308 11.84 458.308C13.18 458.308 14.51 459.538 16.29 461.228C16.25 460.848 16.22 460.398 16.22 460.028L16.22 457.958L17 457.958L17 462.558ZM17.14 454.451C17.14 455.861 16 456.921 13.71 456.921C10.84 456.921 9.75 455.621 9.75 454.201C9.75 453.441 10.07 452.881 10.49 452.491L11.06 452.991C10.72 453.281 10.51 453.721 10.51 454.171C10.51 455.191 11.31 456.051 13.71 456.051C15.47 456.051 16.42 455.491 16.42 454.461C16.42 453.751 15.79 453.211 14.85 453.211C13.92 453.211 13.33 453.651 13.33 454.541C13.33 455.001 13.61 455.581 14.35 456.081L13.62 456.111C13.02 455.651 12.65 454.991 12.65 454.391C12.65 453.161 13.39 452.351 14.85 452.351C16.22 452.351 17.14 453.321 17.14 454.451ZM17.14 449.294C17.14 450.434 16.66 451.134 16.16 451.634L15.56 451.174C15.99 450.764 16.38 450.224 16.38 449.384C16.38 448.514 15.75 447.824 14.75 447.824C13.77 447.824 13.18 448.424 13.18 449.334C13.18 449.824 13.34 450.134 13.62 450.554L13.31 451.044L9.88 450.814L9.88 447.244L10.66 447.244L10.66 450.014L12.78 450.204C12.6 449.874 12.49 449.544 12.49 449.104C12.49 447.884 13.18 446.894 14.72 446.894C16.27 446.894 17.14 448.064 17.14 449.294ZM17.14 443.747C17.14 444.887 16.66 445.587 16.16 446.087L15.56 445.627C15.99 445.217 16.38 444.677 16.38 443.837C16.38 442.967 15.75 442.277 14.75 442.277C13.77 442.277 13.18 442.877 13.18 443.787C13.18 444.277 13.34 444.587 13.62 445.007L13.31 445.497L9.88 445.267L9.88 441.697L10.66 441.697L10.66 444.467L12.78 444.657C12.6 444.327 12.49 443.997 12.49 443.557C12.49 442.337 13.18 441.347 14.72 441.347C16.27 441.347 17.14 442.517 17.14 443.747ZM17.14 435.574C17.14 436.984 16 438.044 13.71 438.044C10.84 438.044 9.75 436.744 9.75 435.324C9.75 434.564 10.07 434.004 10.49 433.614L11.06 434.114C10.72 434.404 10.51 434.844 10.51 435.294C10.51 436.314 11.31 437.174 13.71 437.174C15.47 437.174 16.42 436.614 16.42 435.584C16.42 434.874 15.79 434.334 14.85 434.334C13.92 434.334 13.33 434.774 13.33 435.664C13.33 436.124 13.61 436.704 14.35 437.204L13.62 437.234C13.02 436.774 12.65 436.114 12.65 435.514C12.65 434.284 13.39 433.474 14.85 433.474C16.22 433.474 17.14 434.444 17.14 435.574ZM17.14 430.247C17.14 431.677 15.81 432.537 13.42 432.537C11.03 432.537 9.75 431.677 9.75 430.247C9.75 428.837 11.03 427.977 13.42 427.977C15.81 427.977 17.14 428.837 17.14 430.247ZM16.4 430.247C16.4 429.417 15.51 428.857 13.42 428.857C11.32 428.857 10.48 429.417 10.48 430.247C10.48 431.087 11.32 431.657 13.42 431.657C15.51 431.657 16.4 431.087 16.4 430.247ZM17 426.6L16.24 426.6L16.24 424.97L10.99 424.97L10.99 426.28L10.4 426.28C10.28 425.62 10.11 425.15 9.88 424.76L9.88 424.06L16.24 424.06L16.24 422.58L17 422.58L17 426.6ZM17 421.054L16.24 421.054L16.24 419.424L10.99 419.424L10.99 420.734L10.4 420.734C10.28 420.074 10.11 419.604 9.88 419.214L9.88 418.514L16.24 418.514L16.24 417.034L17 417.034L17 421.054Z" fill="black"/>
<path d="M17.14 373.39C17.14 374.53 16.66 375.23 16.16 375.73L15.56 375.27C15.99 374.86 16.38 374.32 16.38 373.48C16.38 372.61 15.75 371.92 14.75 371.92C13.77 371.92 13.18 372.52 13.18 373.43C13.18 373.92 13.34 374.23 13.62 374.65L13.31 375.14L9.88 374.91L9.88 371.34L10.66 371.34L10.66 374.11L12.78 374.3C12.6 373.97 12.49 373.64 12.49 373.2C12.49 371.98 13.18 370.99 14.72 370.99C16.27 370.99 17.14 372.16 17.14 373.39ZM17 369.573L16.24 369.573L16.24 367.943L10.99 367.943L10.99 369.253L10.4 369.253C10.28 368.593 10.11 368.123 9.88 367.733L9.88 367.033L16.24 367.033L16.24 365.553L17 365.553L17 369.573ZM17 364.026L16.24 364.026L16.24 362.396L10.99 362.396L10.99 363.706L10.4 363.706C10.28 363.046 10.11 362.576 9.88 362.186L9.88 361.486L16.24 361.486L16.24 360.006L17 360.006L17 364.026ZM18.9 358.619L18.37 358.829C18.09 358.209 17.59 357.829 16.98 357.829L16.16 357.929L16.82 357.489C16.97 357.609 17.02 357.769 17.02 357.949C17.02 358.299 16.79 358.609 16.38 358.609C15.98 358.609 15.74 358.299 15.74 357.929C15.74 357.449 16.15 357.159 16.81 357.159C17.78 357.159 18.53 357.709 18.9 358.619ZM17 352.37C14.32 352.24 12.61 351.7 10.66 350.3L10.66 353.85L9.88 353.85L9.88 349.27L10.44 349.27C12.59 350.95 14.22 351.3 17 351.42L17 352.37ZM17 346.823C14.32 346.693 12.61 346.153 10.66 344.753L10.66 348.303L9.88 348.303L9.88 343.723L10.44 343.723C12.59 345.403 14.22 345.753 17 345.873L17 346.823ZM17 339.856L12.22 339.856C11.85 339.856 11.23 339.826 10.86 339.796L10.86 339.846C11.19 340.026 11.51 340.226 11.86 340.426L14.31 342.096L14.31 338.016L15.03 338.016L15.03 343.056L14.43 343.056L9.88 340.006L9.88 338.996L17 338.996L17 339.856ZM14.56 337.239L13.86 337.239L13.86 334.679L14.56 334.679L14.56 337.239ZM17 333.352L16.24 333.352L16.24 331.722L10.99 331.722L10.99 333.032L10.4 333.032C10.28 332.372 10.11 331.902 9.88 331.512L9.88 330.812L16.24 330.812L16.24 329.332L17 329.332L17 333.352ZM17 325.449L9.67 325.449L9.67 324.339L13.6 322.929C14.1 322.749 14.61 322.579 15.13 322.399L15.13 322.359C14.61 322.179 14.1 322.019 13.6 321.849L9.67 320.459L9.67 319.339L17 319.339L17 320.199L12.95 320.199C12.31 320.199 11.43 320.129 10.78 320.079L10.78 320.129L12.45 320.709L16.27 322.099L16.27 322.719L12.45 324.109L10.78 324.689L10.78 324.729C11.43 324.679 12.31 324.609 12.95 324.609L17 324.609L17 325.449ZM17 318.304L9.67 315.824L9.67 314.784L17 312.304L17 313.274L12.9 314.564C12.08 314.824 11.28 315.054 10.43 315.294L10.43 315.334C11.28 315.574 12.08 315.804 12.9 316.074L17 317.364L17 318.304ZM14.76 317.004L14.03 317.004L14.03 313.624L14.76 313.624L14.76 317.004ZM17.14 308.507C17.14 310.427 15.72 311.807 13.34 311.807C10.98 311.807 9.54 310.387 9.54 308.447C9.54 307.437 10 306.767 10.44 306.337L11.04 306.847C10.66 307.217 10.35 307.687 10.35 308.427C10.35 309.907 11.49 310.857 13.32 310.857C15.17 310.857 16.32 309.987 16.32 308.417C16.32 307.887 16.16 307.377 15.9 307.097L13.98 307.097L13.98 308.647L13.21 308.647L13.21 306.237L16.29 306.237C16.78 306.717 17.14 307.517 17.14 308.507ZM17.14 301.782C17.14 303.632 15.66 304.912 13.31 304.912C10.96 304.912 9.54 303.632 9.54 301.782C9.54 299.942 10.97 298.662 13.31 298.662C15.66 298.662 17.14 299.942 17.14 301.782ZM16.32 301.782C16.32 300.472 15.14 299.602 13.31 299.602C11.48 299.602 10.35 300.472 10.35 301.782C10.35 303.102 11.48 303.962 13.31 303.962C15.14 303.962 16.32 303.102 16.32 301.782ZM17 297.07L9.67 297.07L9.67 296.14L13.36 296.14L13.36 296.12L9.67 293.06L9.67 292.01L12.46 294.31L17 291.66L17 292.68L13.19 294.88L14.68 296.14L17 296.14L17 297.07ZM14.56 291.497L13.86 291.497L13.86 288.937L14.56 288.937L14.56 291.497ZM17 287.49L9.67 287.49L9.67 285.66C9.67 283.4 10.98 282.2 13.31 282.2C15.64 282.2 17 283.4 17 285.61L17 287.49ZM16.24 286.56L16.24 285.73C16.24 284.01 15.17 283.15 13.31 283.15C11.45 283.15 10.43 284.01 10.43 285.73L10.43 286.56L16.24 286.56ZM17.14 277.895C17.14 279.745 15.66 281.025 13.31 281.025C10.96 281.025 9.54 279.745 9.54 277.895C9.54 276.055 10.97 274.775 13.31 274.775C15.66 274.775 17.14 276.055 17.14 277.895ZM16.32 277.895C16.32 276.585 15.14 275.715 13.31 275.715C11.48 275.715 10.35 276.585 10.35 277.895C10.35 279.215 11.48 280.075 13.31 280.075C15.14 280.075 16.32 279.215 16.32 277.895ZM17 273.184L9.67 273.184L9.67 272.234L14.29 269.564L15.81 268.774L15.81 268.724C15.07 268.784 14.24 268.854 13.48 268.854L9.66999 268.854L9.66999 267.964L17 267.964L17 268.924L12.38 271.584L10.87 272.374L10.87 272.424C11.61 272.374 12.38 272.304 13.16 272.304L17 272.304L17 273.184ZM17.14 263.077C17.14 264.997 15.72 266.377 13.34 266.377C10.98 266.377 9.53999 264.957 9.53999 263.017C9.53999 262.007 9.99999 261.337 10.44 260.907L11.04 261.417C10.66 261.787 10.35 262.257 10.35 262.997C10.35 264.477 11.49 265.427 13.32 265.427C15.17 265.427 16.32 264.557 16.32 262.987C16.32 262.457 16.16 261.947 15.9 261.667L13.98 261.667L13.98 263.217L13.21 263.217L13.21 260.807L16.29 260.807C16.78 261.287 17.14 262.087 17.14 263.077ZM18.9 259.322L18.37 259.532C18.09 258.912 17.59 258.532 16.98 258.532L16.16 258.632L16.82 258.192C16.97 258.312 17.02 258.472 17.02 258.652C17.02 259.002 16.79 259.312 16.38 259.312C15.98 259.312 15.74 259.002 15.74 258.632C15.74 258.152 16.15 257.862 16.81 257.862C17.78 257.862 18.53 258.412 18.9 259.322ZM17.14 251.163C17.14 253.083 15.72 254.463 13.34 254.463C10.98 254.463 9.53999 253.043 9.53999 251.103C9.53999 250.093 9.99999 249.423 10.44 248.993L11.04 249.503C10.66 249.873 10.35 250.343 10.35 251.083C10.35 252.563 11.49 253.513 13.32 253.513C15.17 253.513 16.32 252.643 16.32 251.073C16.32 250.543 16.16 250.033 15.9 249.753L13.98 249.753L13.98 251.303L13.21 251.303L13.21 248.893L16.29 248.893C16.78 249.373 17.14 250.173 17.14 251.163ZM17 248.187L9.66999 245.707L9.66999 244.667L17 242.187L17 243.157L12.9 244.447C12.08 244.707 11.28 244.937 10.43 245.177L10.43 245.217C11.28 245.457 12.08 245.687 12.9 245.957L17 247.247L17 248.187ZM14.76 246.887L14.03 246.887L14.03 243.507L14.76 243.507L14.76 246.887ZM17 241.133L9.66999 241.133L9.66999 240.183L14.29 237.513L15.81 236.723L15.81 236.673C15.07 236.733 14.24 236.803 13.48 236.803L9.66999 236.803L9.66999 235.913L17 235.913L17 236.873L12.38 239.533L10.87 240.323L10.87 240.373C11.61 240.323 12.38 240.253 13.16 240.253L17 240.253L17 241.133ZM17.14 231.026C17.14 232.946 15.72 234.326 13.34 234.326C10.98 234.326 9.53999 232.906 9.53999 230.966C9.53999 229.956 9.99999 229.286 10.44 228.856L11.04 229.366C10.66 229.736 10.35 230.206 10.35 230.946C10.35 232.426 11.49 233.376 13.32 233.376C15.17 233.376 16.32 232.506 16.32 230.936C16.32 230.406 16.16 229.896 15.9 229.616L13.98 229.616L13.98 231.166L13.21 231.166L13.21 228.756L16.29 228.756C16.78 229.236 17.14 230.036 17.14 231.026ZM17.14 224.982C17.14 226.012 16.72 226.902 16.05 227.542L15.41 226.992C15.97 226.462 16.32 225.722 16.32 224.962C16.32 224.002 15.84 223.432 15.13 223.432C14.37 223.432 14.13 223.962 13.83 224.652L13.37 225.702C13.08 226.392 12.56 227.192 11.49 227.192C10.36 227.192 9.53999 226.222 9.53999 224.882C9.53999 224.012 9.90999 223.242 10.45 222.732L11.04 223.222C10.62 223.672 10.35 224.212 10.35 224.882C10.35 225.712 10.77 226.252 11.42 226.252C12.14 226.252 12.4 225.612 12.64 225.042L13.09 224.002C13.46 223.142 13.97 222.492 15.06 222.492C16.22 222.492 17.14 223.442 17.14 224.982ZM17 221.055L9.66999 221.055L9.66999 216.835L10.45 216.835L10.45 220.125L12.75 220.125L12.75 217.355L13.54 217.355L13.54 220.125L16.22 220.125L16.22 216.725L17 216.725L17 221.055ZM17.14 212.456C17.14 214.306 15.66 215.586 13.31 215.586C10.96 215.586 9.53999 214.306 9.53999 212.456C9.53999 210.616 10.97 209.336 13.31 209.336C15.66 209.336 17.14 210.616 17.14 212.456ZM16.32 212.456C16.32 211.146 15.14 210.276 13.31 210.276C11.48 210.276 10.35 211.146 10.35 212.456C10.35 213.776 11.48 214.636 13.31 214.636C15.14 214.636 16.32 213.776 16.32 212.456ZM17.14 204.864C17.14 206.784 15.72 208.164 13.34 208.164C10.98 208.164 9.53999 206.744 9.53999 204.804C9.53999 203.794 9.99999 203.124 10.44 202.694L11.04 203.204C10.66 203.574 10.35 204.044 10.35 204.784C10.35 206.264 11.49 207.214 13.32 207.214C15.17 207.214 16.32 206.344 16.32 204.774C16.32 204.244 16.16 203.734 15.9 203.454L13.98 203.454L13.98 205.004L13.21 205.004L13.21 202.594L16.29 202.594C16.78 203.074 17.14 203.874 17.14 204.864ZM17.14 198.25C17.14 199.74 16.33 200.88 13.98 200.88L9.66999 200.88L9.66999 199.96L14.01 199.96C15.77 199.96 16.32 199.21 16.32 198.25C16.32 197.28 15.77 196.5 14.01 196.5L9.66999 196.5L9.66999 195.61L13.98 195.61C16.33 195.61 17.14 196.75 17.14 198.25ZM18.9 194.108L18.37 194.318C18.09 193.698 17.59 193.318 16.98 193.318L16.16 193.418L16.82 192.978C16.97 193.098 17.02 193.258 17.02 193.438C17.02 193.788 16.79 194.098 16.38 194.098C15.98 194.098 15.74 193.788 15.74 193.418C15.74 192.938 16.15 192.648 16.81 192.648C17.78 192.648 18.53 193.198 18.9 194.108ZM17.14 186.798C17.14 187.828 16.72 188.718 16.05 189.358L15.41 188.808C15.97 188.278 16.32 187.538 16.32 186.778C16.32 185.818 15.84 185.248 15.13 185.248C14.37 185.248 14.13 185.778 13.83 186.468L13.37 187.518C13.08 188.208 12.56 189.008 11.49 189.008C10.36 189.008 9.53999 188.038 9.53999 186.698C9.53999 185.828 9.90999 185.058 10.45 184.548L11.04 185.038C10.62 185.488 10.35 186.028 10.35 186.698C10.35 187.528 10.77 188.068 11.42 188.068C12.14 188.068 12.4 187.428 12.64 186.858L13.09 185.818C13.46 184.958 13.97 184.308 15.06 184.308C16.22 184.308 17.14 185.258 17.14 186.798ZM17.14 180.161C17.14 182.011 15.66 183.291 13.31 183.291C10.96 183.291 9.53999 182.011 9.53999 180.161C9.53999 178.321 10.97 177.041 13.31 177.041C15.66 177.041 17.14 178.321 17.14 180.161ZM16.32 180.161C16.32 178.851 15.14 177.981 13.31 177.981C11.48 177.981 10.35 178.851 10.35 180.161C10.35 181.481 11.48 182.341 13.31 182.341C15.14 182.341 16.32 181.481 16.32 180.161ZM17 175.449L9.66999 175.449L9.66999 171.229L10.45 171.229L10.45 174.519L12.75 174.519L12.75 171.749L13.54 171.749L13.54 174.519L16.22 174.519L16.22 171.119L17 171.119L17 175.449ZM17.14 166.961C17.14 168.451 16.33 169.591 13.98 169.591L9.66999 169.591L9.66999 168.671L14.01 168.671C15.77 168.671 16.32 167.921 16.32 166.961C16.32 165.991 15.77 165.211 14.01 165.211L9.66999 165.211L9.66999 164.321L13.98 164.321C16.33 164.321 17.14 165.461 17.14 166.961ZM17 162.354L9.66999 162.354L9.66999 161.424L16.22 161.424L16.22 158.224L17 158.224L17 162.354ZM18.9 157.184L18.37 157.394C18.09 156.774 17.59 156.394 16.98 156.394L16.16 156.494L16.82 156.054C16.97 156.174 17.02 156.334 17.02 156.514C17.02 156.864 16.79 157.174 16.38 157.174C15.98 157.174 15.74 156.864 15.74 156.494C15.74 156.014 16.15 155.724 16.81 155.724C17.78 155.724 18.53 156.274 18.9 157.184ZM17 151.904L9.66999 151.904L9.66999 149.614C9.66999 148.124 10.21 147.054 11.73 147.054C13.2 147.054 13.9 148.124 13.9 149.614L13.9 150.974L17 150.974L17 151.904ZM13.15 150.974L13.15 149.744C13.15 148.604 12.68 147.974 11.73 147.974C10.77 147.974 10.43 148.604 10.43 149.744L10.43 150.974L13.15 150.974ZM17 147.874L13.65 149.794L13.17 149.074L17 146.834L17 147.874ZM17 145.557L9.66999 145.557L9.66999 141.337L10.45 141.337L10.45 144.627L12.75 144.627L12.75 141.857L13.54 141.857L13.54 144.627L16.22 144.627L16.22 141.227L17 141.227L17 145.557ZM17 139.668L9.66999 139.668L9.66999 137.578C9.66999 135.938 10.22 134.828 11.83 134.828C13.37 134.828 14.09 135.928 14.09 137.538L14.09 138.738L17 138.738L17 139.668ZM13.34 138.738L13.34 137.648C13.34 136.368 12.87 135.748 11.83 135.748C10.76 135.748 10.43 136.398 10.43 137.698L10.43 138.738L13.34 138.738ZM17.14 130.74C17.14 132.23 16.33 133.37 13.98 133.37L9.66999 133.37L9.66999 132.45L14.01 132.45C15.77 132.45 16.32 131.7 16.32 130.74C16.32 129.77 15.77 128.99 14.01 128.99L9.66999 128.99L9.66999 128.1L13.98 128.1C16.33 128.1 17.14 129.24 17.14 130.74ZM17 126.133L9.66999 126.133L9.66999 123.963C9.66999 122.473 10.18 121.443 11.47 121.443C12.19 121.443 12.83 121.823 13.06 122.513L13.1 122.513C13.27 121.633 13.86 121.023 14.86 121.023C16.29 121.023 17 122.163 17 123.793L17 126.133ZM12.79 125.203L12.79 124.123C12.79 122.863 12.33 122.353 11.58 122.353C10.72 122.353 10.4 122.933 10.4 124.073L10.4 125.203L12.79 125.203ZM16.27 125.203L16.27 123.923C16.27 122.673 15.82 121.923 14.83 121.923C13.92 121.923 13.5 122.643 13.5 123.923L13.5 125.203L16.27 125.203ZM17 119.561L9.66999 119.561L9.66999 118.631L16.22 118.631L16.22 115.431L17 115.431L17 119.561ZM17 114.131L9.66999 114.131L9.66999 113.201L17 113.201L17 114.131ZM17.14 108.431C17.14 110.261 15.72 111.621 13.34 111.621C10.98 111.621 9.53999 110.231 9.53999 108.371C9.53999 107.481 9.96999 106.791 10.44 106.361L11.04 106.871C10.63 107.251 10.35 107.741 10.35 108.361C10.35 109.751 11.49 110.671 13.32 110.671C15.17 110.671 16.32 109.791 16.32 108.391C16.32 107.701 16.02 107.161 15.5 106.691L16.08 106.191C16.76 106.771 17.14 107.481 17.14 108.431ZM17.14 99.8779C17.14 101.728 15.66 103.008 13.31 103.008C10.96 103.008 9.53999 101.728 9.53999 99.8779C9.53999 98.0379 10.97 96.7579 13.31 96.7579C15.66 96.7579 17.14 98.0379 17.14 99.8779ZM16.32 99.8779C16.32 98.5679 15.14 97.6979 13.31 97.6979C11.48 97.6979 10.35 98.5679 10.35 99.8779C10.35 101.198 11.48 102.058 13.31 102.058C15.14 102.058 16.32 101.198 16.32 99.8779ZM17 95.166L9.66999 95.166L9.66999 90.946L10.45 90.946L10.45 94.236L12.94 94.236L12.94 91.446L13.71 91.446L13.71 94.236L17 94.236L17 95.166ZM17 87.4121L9.66999 87.4121L9.66999 86.4821L13.36 86.4821L13.36 86.4621L9.66999 83.4021L9.66999 82.3521L12.46 84.6521L17 82.0021L17 83.0221L13.19 85.2221L14.68 86.4821L17 86.4821L17 87.4121ZM17.14 78.4814C17.14 80.3314 15.66 81.6114 13.31 81.6114C10.96 81.6114 9.53999 80.3314 9.53999 78.4814C9.53999 76.6414 10.97 75.3614 13.31 75.3614C15.66 75.3614 17.14 76.6414 17.14 78.4814ZM16.32 78.4814C16.32 77.1714 15.14 76.3014 13.31 76.3014C11.48 76.3014 10.35 77.1714 10.35 78.4814C10.35 79.8014 11.48 80.6614 13.31 80.6614C15.14 80.6614 16.32 79.8014 16.32 78.4814ZM17 73.7695L9.66999 73.7695L9.66999 71.4795C9.66999 69.9895 10.21 68.9195 11.73 68.9195C13.2 68.9195 13.9 69.9895 13.9 71.4795L13.9 72.8395L17 72.8395L17 73.7695ZM13.15 72.8395L13.15 71.6095C13.15 70.4695 12.68 69.8395 11.73 69.8395C10.77 69.8395 10.43 70.4695 10.43 71.6095L10.43 72.8395L13.15 72.8395ZM17 69.7395L13.65 71.6595L13.17 70.9395L17 68.6995L17 69.7395ZM17 67.4219L9.66999 67.4219L9.66999 63.2019L10.45 63.2019L10.45 66.4919L12.75 66.4919L12.75 63.7219L13.54 63.7219L13.54 66.4919L16.22 66.4919L16.22 63.0919L17 63.0919L17 67.4219ZM17 62.5032L9.66999 60.0232L9.66999 58.9832L17 56.5032L17 57.4732L12.9 58.7632C12.08 59.0232 11.28 59.2532 10.43 59.4932L10.43 59.5332C11.28 59.7732 12.08 60.0032 12.9 60.2732L17 61.5632L17 62.5032ZM14.76 61.2032L14.03 61.2032L14.03 57.8232L14.76 57.8232L14.76 61.2032ZM17.14 49.1966C17.14 50.6266 15.81 51.4866 13.42 51.4866C11.03 51.4866 9.74999 50.6266 9.74999 49.1966C9.74999 47.7866 11.03 46.9266 13.42 46.9266C15.81 46.9266 17.14 47.7866 17.14 49.1966ZM16.4 49.1966C16.4 48.3666 15.51 47.8066 13.42 47.8066C11.32 47.8066 10.48 48.3666 10.48 49.1966C10.48 50.0366 11.32 50.6066 13.42 50.6066C15.51 50.6066 16.4 50.0366 16.4 49.1966ZM17 44.4597C14.32 44.3297 12.61 43.7897 10.66 42.3897L10.66 45.9397L9.87999 45.9397L9.87999 41.3597L10.44 41.3597C12.59 43.0397 14.22 43.3897 17 43.5097L17 44.4597ZM17.14 38.0928C17.14 39.4428 16.32 40.4328 15.19 40.4328C14.25 40.4328 13.61 39.7528 13.26 39.0828L13.22 39.0828C12.85 39.6128 12.32 40.0828 11.57 40.0828C10.47 40.0828 9.74999 39.2128 9.74998 38.0628C9.74998 36.8128 10.53 36.0528 11.64 36.0528C12.39 36.0528 13.02 36.6028 13.35 37.0328L13.4 37.0328C13.78 36.4028 14.28 35.7928 15.24 35.7928C16.31 35.7928 17.14 36.7228 17.14 38.0928ZM13.12 37.5928C12.68 37.1028 12.21 36.8328 11.68 36.8328C10.98 36.8328 10.42 37.2928 10.42 38.0828C10.42 38.7528 10.88 39.2428 11.57 39.2428C12.42 39.2428 12.78 38.4528 13.12 37.5928ZM16.45 38.0728C16.45 37.2328 15.94 36.6728 15.21 36.6728C14.28 36.6728 13.96 37.5728 13.54 38.6028C13.92 39.1928 14.44 39.6128 15.1 39.6128C15.88 39.6128 16.45 38.9528 16.45 38.0728ZM17.14 32.5559C17.14 33.9859 15.81 34.8459 13.42 34.8459C11.03 34.8459 9.74998 33.9859 9.74998 32.5559C9.74998 31.1459 11.03 30.2859 13.42 30.2859C15.81 30.2859 17.14 31.1459 17.14 32.5559ZM16.4 32.5559C16.4 31.7259 15.51 31.1659 13.42 31.1659C11.32 31.1659 10.48 31.7259 10.48 32.5559C10.48 33.3959 11.32 33.9659 13.42 33.9659C15.51 33.9659 16.4 33.3959 16.4 32.5559ZM17 29.3491L16.47 29.3491C14.33 27.1991 13.04 25.9991 11.87 25.9991C11.06 25.9991 10.48 26.4291 10.48 27.3391C10.48 27.9391 10.86 28.4591 11.34 28.8691L10.82 29.3991C10.17 28.7991 9.74998 28.1591 9.74998 27.2291C9.74998 25.9191 10.57 25.0991 11.84 25.0991C13.18 25.0991 14.51 26.3291 16.29 28.0191C16.25 27.6391 16.22 27.1891 16.22 26.8191L16.22 24.7491L17 24.7491L17 29.3491Z" fill="black"/>
</svg>
